<svg width="48" height="48" viewBox="0 0 48 48" fill="none" xmlns="http://www.w3.org/2000/svg">
<rect width="48" height="48" rx="24" fill="#E0E0E0"/>
<path d="M32.2402 32.2404H28.8942V27.0005C28.8942 25.7509 28.872 24.143 27.1539 24.143C25.4114 24.143 25.1443 25.5039 25.1443 26.9104V32.2404H21.7995V21.4647H25.0119V22.9368H25.0564C25.7118 21.8174 26.9292 21.1487 28.2255 21.1965C31.6171 21.1965 32.2413 23.4276 32.2413 26.3284L32.2402 32.2404ZM18.024 19.9914C16.9513 19.9914 16.0823 19.1224 16.0823 18.0497C16.0823 16.9771 16.9513 16.108 18.024 16.108C19.0967 16.108 19.9657 16.9771 19.9657 18.0497C19.9657 19.1224 19.0967 19.9914 18.024 19.9914ZM19.6964 32.2404H16.3471V21.4647H19.6964V32.2404ZM33.9082 13.0013H14.6658C13.7567 12.9913 13.0111 13.7201 13 14.6292V33.9506C13.0111 34.8609 13.7567 35.5897 14.6658 35.5797H33.9082C34.8195 35.5908 35.5684 34.862 35.5806 33.9506V14.6281C35.5673 13.7168 34.8184 12.9879 33.9082 13.0002" fill="#121212"/>
</svg>
