<svg width="48" height="48" viewBox="0 0 48 48" fill="none" xmlns="http://www.w3.org/2000/svg">
<rect width="48" height="48" rx="24" fill="#E0E0E0"/>
<path d="M32.6454 20.7298C32.6588 20.9354 32.6588 21.1419 32.6588 21.3495C32.6588 27.6895 27.9112 35 19.2325 35V34.9961C16.669 35 14.1582 34.2537 12 32.8457C12.3728 32.8915 12.7475 32.9139 13.1232 32.9149C15.2487 32.9169 17.313 32.1919 18.9834 30.8571C16.9642 30.8181 15.1932 29.4794 14.575 27.5248C15.2823 27.6632 16.0106 27.6349 16.7054 27.443C14.5032 26.9909 12.92 25.0237 12.92 22.7399C12.92 22.7194 12.92 22.6989 12.92 22.6794C13.5765 23.0516 14.3105 23.2572 15.0619 23.2796C12.988 21.8717 12.3479 19.0676 13.6004 16.8753C15.9962 19.8724 19.5315 21.6944 23.3256 21.8883C22.9451 20.2222 23.4655 18.4761 24.6902 17.304C26.5906 15.4869 29.5797 15.5804 31.367 17.5125C32.424 17.3011 33.437 16.9065 34.3637 16.3482C34.011 17.4589 33.274 18.4021 32.2889 19.0023C33.2252 18.8883 34.1385 18.634 35 18.2462C34.3665 19.2098 33.5692 20.0507 32.6454 20.7298Z" fill="#121212"/>
</svg>
